<svg xmlns="http://www.w3.org/2000/svg" xmlns:xlink="http://www.w3.org/1999/xlink" width="1400" height="1400" viewBox="0 0 1400 1400">
  <defs>
    <style>
      .cls-1 {
        fill: #fff;
        filter: url(#filter);
      }

      .cls-2 {
        fill-rule: evenodd;
        filter: url(#filter-2);
      }
    </style>
    <filter id="filter" x="45.094" y="45.156" width="1309.816" height="1309.684" filterUnits="userSpaceOnUse">
      <feFlood result="flood" flood-color="#585858"/>
      <feComposite result="composite" operator="in" in2="SourceGraphic"/>
      <feBlend result="blend" in2="SourceGraphic"/>
    </filter>
    <filter id="filter-2" x="255.75" y="339.188" width="887.31" height="720.002" filterUnits="userSpaceOnUse">
      <feFlood result="flood" flood-color="#fff"/>
      <feComposite result="composite" operator="in" in2="SourceGraphic"/>
      <feBlend result="blend" in2="SourceGraphic"/>
    </filter>
  </defs>
  <circle id="circle" class="cls-1" cx="700.002" cy="699.998" r="654.908"/>
  <path id="JM" class="cls-2" d="M380.964,487.179c42.537,0,81.864-24.8,81.864-73.6,0-49.6-39.327-74.4-81.864-74.4s-81.864,24.8-81.864,74.4C299.1,462.379,338.427,487.179,380.964,487.179Zm73.838,39.2H309.534v335.2c0,50.4-8.026,76-53.773,100l28.893,97.6c130.821-28,170.148-92.8,170.148-197.6V526.38Zm219.565,0H529.1v389.6H674.367v-227.2c17.657-20,36.117-32.8,55.379-32.8,23.275,0,34.511,16,34.511,53.6v206.4H909.525v-228c20.065-22.4,37.722-32,54.576-32,23.275,0,33.709,16,33.709,53.6v206.4h145.27v-248c0-105.6-32.11-148-112.36-148-40.133,0-76.25,15.2-131.628,66.4-15.25-46.4-48.155-66.4-102.731-66.4-43.34,0-77.851,18.4-121.994,59.2v-52.8Z"/>
</svg>
